<?xml version="1.0" standalone="no"?>
<!DOCTYPE svg PUBLIC "-//W3C//DTD SVG 20010904//EN"
 "http://www.w3.org/TR/2001/REC-SVG-20010904/DTD/svg10.dtd">
<svg version="1.0" xmlns="http://www.w3.org/2000/svg"
 width="2048.000000pt" height="1590.000000pt" viewBox="0 0 2048.000000 1590.000000"
 preserveAspectRatio="xMidYMid meet">

<g transform="translate(0.000000,1590.000000) scale(0.100000,-0.100000)"
fill="#000000" stroke="none">
<path d="M9283 15353 c-62 -66 -141 -168 -156 -200 -14 -32 -2 -53 32 -53 24
0 38 11 79 63 28 34 75 93 106 131 59 73 64 84 44 104 -24 24 -52 12 -105 -45z"/>
<path d="M8132 15321 c-8 -4 -12 -21 -10 -36 3 -25 16 -35 118 -87 63 -32 127
-58 141 -58 28 0 42 20 32 45 -7 21 -78 69 -163 111 -71 35 -95 40 -118 25z"/>
<path d="M8708 15039 c-21 -12 -24 -52 -5 -66 6 -5 41 -20 77 -32 160 -56 281
-154 341 -276 83 -169 30 -420 -118 -555 -97 -88 -189 -99 -300 -35 -69 41
-101 73 -129 131 -22 46 -26 64 -21 108 3 30 13 69 23 87 50 98 159 173 196
135 24 -23 61 -29 83 -12 18 14 19 17 5 42 -37 67 -126 87 -206 46 -40 -21
-105 -84 -142 -137 -55 -81 -65 -220 -23 -307 47 -98 161 -179 276 -198 50 -8
72 -6 140 12 117 31 142 44 196 99 124 128 183 377 129 551 -36 118 -162 268
-283 337 -46 26 -192 81 -214 81 -4 0 -16 -5 -25 -11z"/>
<path d="M12082 14888 c-17 -17 -15 -36 7 -72 21 -34 144 -306 156 -344 l7
-24 -124 7 c-67 4 -124 9 -126 10 -2 2 13 85 33 185 32 158 35 184 23 196 -17
17 -44 10 -53 -14 -3 -8 -19 -77 -36 -151 -16 -75 -34 -152 -39 -172 l-10 -36
-138 -5 c-122 -4 -145 -7 -188 -29 -39 -19 -49 -29 -49 -48 0 -19 12 -31 55
-54 70 -38 213 -132 228 -150 17 -20 0 -62 -69 -177 -67 -112 -88 -172 -69
-195 7 -8 19 -15 27 -15 12 0 13 -3 3 -14 -6 -8 -10 -25 -8 -38 5 -37 42 -35
89 6 23 19 76 50 118 67 42 17 100 45 129 62 45 25 57 28 75 18 28 -14 165
-118 262 -198 41 -35 81 -63 89 -63 19 0 38 26 34 46 -2 9 -75 71 -162 138
-88 66 -160 126 -160 131 -1 10 180 135 196 135 14 0 33 -52 80 -217 45 -159
59 -181 89 -144 16 19 16 26 2 88 -8 38 -33 123 -55 191 -32 100 -37 126 -27
138 19 23 137 91 209 120 36 14 71 32 79 40 15 14 14 17 -19 84 -5 11 -33 17
-96 23 -49 5 -138 14 -198 20 l-108 12 -31 70 c-75 175 -152 338 -169 361 -21
27 -38 30 -56 12z m-187 -498 c7 -12 -24 -130 -35 -130 -4 0 -31 17 -61 39
-30 21 -69 46 -86 55 -63 32 -40 42 94 45 45 0 85 -3 88 -9z m388 -19 c11 -11
77 -174 77 -191 0 -8 -55 -49 -123 -92 l-122 -77 -94 94 -94 93 17 64 c10 34
22 78 28 97 l10 33 147 -7 c80 -4 149 -10 154 -14z m287 -25 l75 -12 -45 -23
c-25 -13 -71 -39 -103 -58 -33 -20 -62 -32 -67 -27 -10 10 -50 110 -50 124 0
13 99 11 190 -4z m-593 -302 c35 -37 62 -72 60 -77 -3 -11 -52 -38 -196 -106
l-83 -40 5 36 c3 19 26 67 51 106 24 40 52 89 62 110 10 20 22 37 27 37 5 0
38 -30 74 -66z"/>
<path d="M8018 14809 c-25 -14 -22 -52 5 -76 12 -12 64 -42 115 -67 89 -45 95
-46 118 -31 47 31 27 60 -76 111 -41 20 -86 45 -99 55 -27 21 -38 23 -63 8z"/>
<path d="M9595 14670 c-10 -11 -42 -32 -72 -46 -48 -22 -54 -28 -51 -52 2 -21
9 -28 32 -30 42 -5 111 25 141 59 30 36 31 50 7 72 -24 22 -35 21 -57 -3z"/>
<path d="M8313 14056 c-15 -12 -38 -28 -50 -35 -49 -26 -20 -61 50 -61 28 0
87 47 87 69 0 13 -36 51 -49 51 -5 0 -22 -11 -38 -24z"/>
<path d="M9297 14034 c-14 -14 -6 -36 34 -96 56 -81 79 -107 111 -124 68 -35
45 59 -42 174 -27 35 -43 48 -66 50 -16 2 -33 0 -37 -4z"/>
<path d="M8850 13570 c0 -81 110 -175 148 -127 5 6 7 19 3 28 -8 21 -125 129
-140 129 -6 0 -11 -14 -11 -30z"/>
<path d="M16005 13363 c-31 -8 -45 -23 -45 -48 0 -12 6 -27 13 -32 6 -6 71
-13 142 -17 224 -12 344 -54 513 -180 210 -157 380 -394 531 -741 45 -103 157
-419 180 -511 13 -50 47 -72 81 -54 20 11 22 17 17 61 -8 66 -115 381 -183
536 -134 308 -257 496 -442 675 -160 155 -295 232 -498 284 -90 22 -269 39
-309 27z"/>
<path d="M11285 13283 c-665 -35 -1349 -277 -1952 -689 -68 -46 -125 -84 -128
-84 -3 0 -46 28 -96 61 -309 208 -727 364 -1144 426 -184 27 -571 24 -765 -6
-721 -111 -1454 -505 -2050 -1101 -396 -395 -639 -820 -710 -1240 -15 -86 -19
-348 -7 -431 l8 -56 -118 -6 c-532 -29 -1083 -241 -1513 -583 -130 -104 -365
-345 -466 -479 -254 -338 -446 -749 -560 -1195 -152 -598 -87 -1126 189 -1549
72 -110 227 -277 325 -350 l64 -48 -1 -144 c-2 -180 12 -310 49 -467 142 -590
526 -996 1134 -1197 249 -83 466 -120 786 -136 347 -18 736 2 1087 55 l102 16
81 -54 c413 -277 984 -381 1511 -276 199 40 622 202 768 295 l37 22 64 -59
c362 -333 685 -520 1025 -594 111 -24 336 -24 425 -1 273 74 500 226 678 457
36 47 67 86 68 88 1 2 48 -44 105 -101 129 -128 216 -193 344 -257 145 -72
233 -93 380 -93 146 1 218 13 335 59 154 59 282 148 434 301 53 53 97 94 99
92 2 -2 13 -38 26 -79 103 -331 374 -570 766 -675 100 -26 255 -51 386 -60
l86 -7 6 -71 c15 -195 112 -341 239 -362 l38 -7 -15 -28 c-19 -37 -19 -121 0
-167 37 -89 133 -171 226 -193 l49 -12 -35 -41 c-43 -50 -72 -126 -81 -209 -5
-53 -1 -82 26 -178 37 -134 72 -195 142 -246 33 -25 48 -42 45 -53 -7 -20 -92
-213 -157 -351 -66 -143 -74 -172 -73 -270 1 -181 92 -328 247 -401 128 -60
263 -72 386 -34 71 22 153 100 169 163 19 69 5 109 -56 168 -57 55 -62 73 -39
129 10 23 28 41 58 56 59 30 200 141 241 190 l33 40 51 -20 c179 -70 387 -6
477 149 30 51 36 56 83 66 91 20 249 136 276 201 19 48 85 104 175 148 181 91
307 281 347 525 9 58 32 128 70 220 32 74 60 138 64 142 4 4 54 -2 111 -13
235 -48 543 -19 711 67 82 41 239 156 291 213 207 226 307 535 324 1003 l7
178 96 52 c101 54 190 112 232 150 14 13 59 52 100 88 349 304 544 694 598
1192 14 123 14 390 1 533 -33 354 -131 664 -285 902 -71 110 -236 274 -323
323 -104 58 -96 46 -79 131 57 276 43 609 -37 877 -123 410 -415 748 -849 981
l-98 53 8 117 c13 191 8 532 -11 686 -54 455 -195 858 -414 1185 -244 364
-556 621 -977 804 -203 88 -328 128 -580 184 -275 62 -486 86 -848 97 l-177 5
-103 68 c-256 172 -751 409 -1069 512 -487 158 -996 228 -1473 203z m415 -93
c557 -36 1065 -173 1631 -442 140 -67 369 -202 501 -294 l76 -54 184 0 c434 0
948 -81 1285 -203 94 -35 413 -197 462 -236 29 -22 83 -58 119 -78 77 -42 290
-250 378 -369 29 -39 72 -93 95 -120 45 -52 198 -353 241 -474 159 -448 217
-948 166 -1434 l-11 -108 -126 -105 c-492 -407 -1061 -750 -1556 -935 -44 -17
-237 -84 -429 -149 -286 -98 -351 -117 -358 -105 -23 41 -179 252 -242 326
-214 254 -527 520 -811 689 -101 60 -255 131 -286 131 -28 0 -44 -28 -33 -57
7 -20 30 -35 104 -67 116 -51 321 -180 478 -301 144 -110 421 -383 532 -525
162 -205 288 -416 373 -625 166 -406 251 -854 264 -1388 6 -245 6 -249 29
-263 17 -12 28 -13 43 -5 17 10 20 23 23 108 20 618 -135 1367 -373 1801 -22
41 -39 76 -36 78 2 2 157 56 343 120 411 141 571 202 776 301 l158 76 62 -53
c218 -186 387 -440 513 -770 41 -108 49 -120 79 -120 27 0 46 18 46 43 0 24
-92 250 -146 359 -114 227 -265 423 -433 562 -37 30 -37 30 23 62 286 155 695
442 990 697 l78 67 77 -41 c433 -235 701 -544 816 -944 42 -146 57 -264 58
-445 0 -174 -12 -286 -44 -412 -10 -42 -19 -83 -19 -92 0 -10 29 -30 73 -52
208 -105 384 -312 501 -592 56 -133 115 -407 136 -627 53 -578 -81 -1096 -377
-1450 -36 -44 -82 -104 -101 -133 -21 -33 -51 -64 -78 -80 -25 -15 -91 -56
-147 -91 -252 -158 -269 -164 -677 -221 -158 -22 -424 -41 -655 -47 -420 -10
-830 30 -1283 126 -159 34 -182 32 -182 -18 0 -38 16 -44 216 -85 436 -90 771
-120 1229 -113 374 6 627 30 988 93 l37 7 0 -111 c0 -352 -84 -687 -223 -892
-92 -135 -166 -204 -287 -265 -212 -107 -462 -131 -758 -74 -112 21 -114 21
-133 3 -10 -11 -51 -91 -90 -179 -51 -116 -73 -179 -81 -230 -31 -221 -149
-406 -309 -484 -99 -48 -180 -121 -209 -190 -13 -28 -37 -64 -55 -80 -31 -27
-129 -71 -158 -71 -17 0 -93 -72 -140 -132 -54 -68 -127 -101 -236 -106 -70
-3 -96 0 -141 17 -89 34 -102 30 -160 -43 -33 -41 -76 -79 -121 -107 -39 -24
-90 -57 -114 -72 -54 -35 -102 -105 -111 -163 -7 -51 10 -85 75 -149 23 -22
41 -49 41 -61 0 -34 -42 -87 -90 -114 -40 -22 -57 -25 -150 -25 -87 0 -115 4
-163 23 -94 38 -150 90 -194 179 -36 73 -38 82 -38 172 l0 96 77 160 c137 288
163 351 159 392 0 7 -36 42 -79 77 -64 53 -84 76 -106 125 -91 202 -34 401
138 482 52 24 62 43 41 75 -14 22 -22 24 -111 24 -107 0 -151 13 -202 63 -40
38 -72 97 -72 132 0 37 25 80 60 105 21 15 30 30 30 50 0 38 -10 43 -92 41
-55 -1 -77 3 -109 21 -80 45 -127 153 -138 316 -4 60 -11 96 -19 101 -7 4 -70
11 -140 14 -599 29 -1000 294 -1102 728 l-21 91 93 97 c227 236 474 562 649
853 19 32 37 58 41 58 4 0 45 -24 90 -54 286 -186 609 -329 808 -357 97 -14
138 -6 151 29 15 40 -17 58 -112 64 -162 10 -433 122 -724 299 -71 44 -138 86
-148 93 -18 14 -13 25 81 213 199 395 354 844 417 1202 14 77 14 86 -1 103
-43 46 -75 11 -93 -102 -18 -110 -83 -354 -137 -515 -217 -651 -556 -1232
-1013 -1738 -64 -70 -164 -180 -222 -245 -365 -405 -681 -535 -1029 -423 -169
54 -356 181 -487 328 -100 112 -120 133 -133 133 -16 0 -46 -34 -115 -130 -73
-101 -211 -242 -299 -304 -259 -185 -600 -218 -941 -91 -259 96 -526 272 -767
504 -86 82 -104 106 -143 185 -56 113 -88 225 -110 384 -22 153 -17 566 9 726
9 55 14 108 10 118 -7 25 -52 35 -70 16 -35 -34 -70 -403 -61 -638 10 -269 49
-461 128 -630 l40 -84 -23 -18 c-53 -42 -372 -190 -498 -232 -416 -138 -843
-145 -1225 -20 -136 45 -344 144 -449 215 -43 30 -89 61 -102 69 -20 13 -41
12 -186 -8 -343 -47 -460 -56 -803 -56 -347 0 -458 8 -695 55 -618 122 -1062
436 -1274 901 -112 245 -180 641 -146 853 6 39 15 108 20 155 28 243 155 506
366 760 168 203 527 530 729 665 247 165 541 283 850 340 495 91 919 29 1249
-185 95 -61 97 -62 122 -45 53 34 8 85 -159 177 -152 84 -314 136 -519 165
l-118 17 0 47 c0 151 -41 407 -106 659 -61 241 -202 681 -224 704 -17 17 -23
18 -46 8 -23 -11 -26 -17 -22 -50 3 -20 35 -131 72 -247 151 -465 208 -722
230 -1036 l5 -76 -142 -7 c-250 -12 -454 -49 -690 -127 -161 -52 -388 -157
-507 -234 -288 -185 -710 -583 -902 -851 -152 -212 -251 -444 -274 -637 l-7
-57 -30 18 c-17 9 -78 64 -137 122 -497 491 -563 1251 -189 2163 106 258 273
546 429 742 120 150 356 381 470 459 454 313 877 469 1416 521 78 7 151 19
164 27 20 12 21 18 16 73 -22 212 -17 342 20 520 46 223 171 498 347 762 104
157 128 186 264 317 375 363 704 607 1108 823 202 108 384 177 639 243 488
126 978 115 1481 -32 182 -53 480 -189 637 -291 143 -93 275 -250 349 -414 52
-115 98 -258 165 -513 35 -135 89 -330 119 -435 58 -200 95 -374 116 -540 15
-125 15 -520 0 -680 -17 -188 -43 -393 -51 -405 -5 -8 -23 -9 -66 -1 -325 58
-803 24 -1255 -89 -226 -57 -436 -141 -782 -312 -345 -171 -616 -334 -730
-438 -51 -47 -52 -48 -40 -81 6 -19 15 -74 18 -124 11 -150 42 -334 85 -506
70 -277 234 -759 354 -1037 20 -46 36 -88 36 -93 0 -5 -46 -46 -102 -91 -330
-263 -742 -455 -1147 -534 -126 -25 -145 -31 -154 -51 -8 -18 -6 -27 9 -44 22
-25 53 -23 234 17 399 88 811 288 1127 545 39 33 74 59 77 59 3 0 36 -62 74
-137 141 -281 176 -322 218 -258 16 24 15 27 -25 94 -148 250 -325 658 -464
1071 -158 468 -217 732 -230 1028 l-4 83 61 44 c84 60 233 152 346 215 299
166 823 405 950 434 36 7 137 30 225 50 297 65 419 79 715 80 214 1 291 -3
398 -18 96 -15 135 -17 143 -9 14 14 23 60 48 263 32 263 44 494 37 710 -4
107 -11 220 -15 252 l-7 56 61 35 c230 133 589 232 1039 287 812 99 1475 70
1941 -86 92 -30 251 -103 294 -133 53 -38 110 -19 97 32 -4 16 -30 37 -79 65
-304 174 -782 272 -1327 272 l-167 0 -22 158 c-12 86 -35 259 -51 384 -40 311
-79 527 -102 556 -14 17 -53 15 -69 -4 -11 -13 -10 -29 5 -97 23 -108 51 -286
70 -450 9 -73 29 -224 45 -337 16 -113 28 -206 27 -207 -1 -2 -101 -10 -222
-18 -696 -49 -1141 -143 -1468 -310 -57 -29 -88 -40 -90 -32 -2 7 -16 66 -31
132 -15 66 -52 203 -82 305 -30 102 -70 246 -88 321 -108 432 -193 641 -327
802 -48 58 -53 50 92 149 397 269 852 471 1290 572 348 80 670 107 1010 86z"/>
<path d="M7151 12414 c-60 -16 -81 -29 -81 -51 0 -23 28 -26 73 -8 88 35 285
15 502 -50 151 -46 224 -77 308 -131 215 -139 325 -337 345 -624 7 -93 8 -95
32 -95 l25 0 -1 100 c-1 159 -55 332 -139 450 -108 152 -250 253 -458 325
-258 89 -475 119 -606 84z"/>
<path d="M6914 12362 c-75 -26 -147 -76 -215 -150 -63 -70 -74 -104 -32 -110
16 -2 26 5 36 25 41 78 200 193 268 193 32 0 51 36 28 51 -19 12 -26 11 -85
-9z"/>
<path d="M7100 12195 c-6 -8 -10 -19 -8 -24 8 -25 212 -231 316 -322 252 -217
530 -369 721 -395 40 -5 49 -3 55 11 8 23 -11 45 -38 45 -43 0 -173 42 -266
86 -221 105 -525 347 -692 552 -53 64 -67 72 -88 47z"/>
<path d="M7037 12117 c-40 -99 -113 -204 -204 -295 -51 -52 -93 -100 -93 -107
0 -53 104 16 196 131 72 88 171 271 161 297 -12 32 -41 19 -60 -26z"/>
<path d="M6528 11958 c-29 -45 -96 -225 -119 -318 -20 -80 -23 -122 -24 -260
0 -176 7 -210 46 -210 20 0 20 3 12 103 -9 112 -8 149 2 247 l7 65 15 -30 c33
-64 102 -115 138 -101 26 10 17 43 -15 56 -48 20 -83 68 -76 104 4 16 14 38
23 48 20 22 53 24 53 3 0 -8 8 -23 18 -33 14 -14 20 -40 25 -98 13 -168 92
-360 193 -472 214 -237 645 -338 959 -225 173 63 285 179 373 386 23 54 42
102 42 107 0 6 11 10 25 10 14 0 29 8 35 20 24 45 64 7 58 -57 -4 -45 -37 -72
-99 -80 -46 -6 -61 -17 -52 -40 7 -18 73 -17 123 3 91 37 116 149 48 222 -23
23 -81 31 -93 12 -5 -8 -11 -7 -20 0 -30 25 -46 5 -85 -99 -101 -267 -227
-394 -447 -452 -109 -29 -298 -29 -405 -1 -174 47 -333 135 -425 236 -135 148
-211 425 -168 610 14 59 15 80 6 89 -18 18 -44 -5 -55 -49 -11 -50 -10 -49
-38 -30 -31 22 -49 20 -92 -9 l-37 -25 6 22 c4 13 29 71 55 131 43 95 47 109
33 122 -20 20 -28 19 -45 -7z"/>
<path d="M14501 11565 c-199 -27 -373 -90 -441 -160 -29 -30 -33 -38 -23 -54
10 -16 8 -22 -14 -36 -24 -16 -27 -16 -35 -1 -15 27 -47 18 -97 -29 -52 -49
-91 -113 -121 -201 -22 -64 -25 -101 -9 -106 7 -2 -1 -23 -20 -53 -25 -40 -31
-59 -31 -104 0 -106 59 -168 148 -157 37 5 42 3 42 -14 0 -13 -5 -18 -15 -14
-48 19 -105 -40 -105 -106 0 -65 61 -130 121 -130 20 0 21 -3 16 -50 -13 -108
-111 -243 -232 -319 -36 -23 -65 -45 -65 -50 0 -16 59 -53 107 -67 65 -20 212
-17 318 5 179 38 428 130 441 164 3 8 42 12 132 13 196 1 329 39 483 139 89
58 168 138 205 210 16 29 30 52 32 50 8 -7 -51 -108 -93 -159 -25 -31 -45 -58
-45 -60 0 -2 17 -7 38 -11 129 -21 422 106 422 184 0 22 8 24 48 12 21 -5 17
-11 -47 -60 -188 -143 -303 -182 -431 -147 -53 14 -55 14 -78 -9 l-23 -23 48
-16 c166 -55 292 -17 518 154 89 67 120 96 120 113 0 14 -8 24 -25 29 -14 4
-56 16 -95 27 -101 29 -148 67 -191 157 l-35 74 30 26 c17 14 35 41 40 60 28
100 -85 211 -147 144 -11 -12 -26 -18 -34 -15 -9 4 -19 1 -23 -5 -4 -6 -8 -87
-9 -178 -3 -190 -18 -256 -81 -349 -169 -250 -562 -367 -877 -263 -196 65
-397 304 -421 501 -6 45 -5 47 21 52 33 6 39 2 22 -18 -16 -20 -6 -45 19 -45
24 0 83 113 106 204 24 95 41 275 27 296 -8 13 18 5 96 -30 305 -136 624 -209
857 -197 61 4 133 12 160 19 42 11 51 17 53 38 2 14 11 31 20 38 19 14 78 16
87 2 12 -19 42 -10 53 15 17 36 15 86 -3 113 -9 12 -35 35 -59 51 -48 33 -126
129 -126 155 0 28 -53 73 -101 86 -24 7 -68 25 -99 40 -109 55 -183 72 -335
76 -85 2 -181 -2 -244 -11z m-301 -158 c0 -19 -9 -26 -53 -40 -63 -20 -70 -21
-61 -6 8 13 94 69 106 69 4 0 8 -10 8 -23z m-263 -165 c-15 -16 -43 -64 -62
-107 -34 -80 -65 -124 -65 -94 0 47 115 229 146 229 4 0 -5 -13 -19 -28z m473
-61 c47 -11 160 -42 252 -70 275 -83 345 -94 521 -82 27 2 53 -1 59 -7 27 -27
-248 -36 -397 -13 -159 25 -414 101 -555 165 l-55 25 45 0 c25 0 83 -8 130
-18z m-321 -137 c-6 -54 -13 -101 -16 -104 -9 -8 2 184 11 198 15 25 16 5 5
-94z m1393 -122 c22 -45 8 -84 -40 -114 -21 -12 -40 -27 -44 -32 -9 -14 12
-38 29 -32 9 4 13 -3 13 -22 1 -36 32 -104 72 -154 27 -34 28 -39 10 -29 -27
14 -96 101 -123 152 -24 48 -28 209 -5 209 8 0 19 14 25 31 14 39 40 36 63 -9z
m-1597 -352 c10 -11 24 -20 31 -20 8 0 27 -26 43 -59 57 -112 161 -227 276
-304 50 -34 39 -34 -28 -1 -61 31 -134 88 -173 133 l-27 33 -34 -69 c-18 -37
-43 -77 -54 -88 -18 -18 -17 -14 5 36 14 31 29 78 32 105 3 27 11 59 17 72 14
29 -2 42 -56 42 -66 0 -107 64 -77 121 13 24 22 24 45 -1z m1465 -47 c-11 -17
-11 -17 -6 0 3 10 6 24 7 30 0 9 2 9 5 0 3 -7 0 -20 -6 -30z m-925 -412 c19
-8 19 -8 -1 -19 -17 -9 -24 -7 -37 9 -16 18 -16 19 1 18 9 0 26 -4 37 -8z
m-698 -147 c-2 -2 -12 -1 -22 2 -17 7 -17 8 1 21 17 12 19 12 22 -2 2 -9 2
-19 -1 -21z m262 -8 c-2 -2 -29 -6 -59 -9 -37 -4 -50 -3 -40 3 14 9 109 15 99
6z"/>
<path d="M7013 11528 c-16 -21 -21 -54 -11 -72 21 -38 62 -1 56 52 -3 29 -29
41 -45 20z"/>
<path d="M7753 11408 c-18 -24 -22 -58 -7 -73 28 -28 62 12 52 62 -4 22 -31
29 -45 11z"/>
<path d="M7035 11270 c-15 -25 78 -130 161 -183 109 -68 268 -90 379 -52 67
22 175 95 175 118 0 31 -25 29 -78 -7 -88 -59 -154 -79 -249 -74 -113 6 -206
51 -291 143 -59 63 -84 77 -97 55z"/>
<path d="M6653 11194 c-7 -18 20 -185 37 -228 10 -26 43 -36 55 -16 5 8 -26
195 -41 243 -7 22 -43 22 -51 1z"/>
<path d="M8221 11121 c-7 -4 -19 -34 -27 -66 -21 -78 -68 -196 -99 -245 -29
-46 -30 -53 -11 -69 23 -19 43 -2 81 70 69 132 114 300 83 312 -8 3 -20 2 -27
-2z"/>
<path d="M14970 10795 c-18 -21 1 -69 28 -73 19 -3 22 1 22 36 0 27 -5 42 -16
46 -21 8 -20 8 -34 -9z"/>
<path d="M11771 10713 c-72 -35 -152 -118 -190 -195 -32 -64 -33 -91 -5 -102
26 -10 43 5 68 59 33 72 96 139 163 171 66 33 95 25 113 -32 28 -83 -14 -192
-140 -364 -129 -178 -125 -170 -113 -188 15 -24 80 -26 190 -6 109 19 162 11
190 -32 22 -34 67 -30 70 6 3 29 -20 60 -68 89 -38 24 -131 28 -208 10 -24 -5
-45 -8 -47 -6 -3 2 34 61 80 130 100 150 128 217 127 305 -1 159 -96 223 -230
155z"/>
<path d="M12592 10708 c-7 -7 -12 -19 -12 -27 0 -9 59 -73 131 -142 74 -72
129 -133 127 -140 -8 -23 -118 -50 -228 -56 -127 -7 -150 -14 -150 -47 0 -21
10 -28 70 -51 196 -75 293 -197 245 -310 -21 -52 -42 -74 -90 -96 -85 -39
-166 -15 -205 61 -23 45 -53 52 -74 17 -17 -26 27 -100 80 -136 83 -55 191
-47 281 19 81 60 117 192 78 285 -17 43 -108 141 -150 163 l-30 15 85 21 c92
23 157 52 174 79 19 30 -37 120 -123 195 -41 37 -97 88 -125 115 -52 49 -64
55 -84 35z"/>
<path d="M14303 10633 c-14 -5 -17 -41 -7 -67 8 -20 43 -21 50 -1 14 36 -13
78 -43 68z"/>
<path d="M14996 10535 c-56 -94 -141 -153 -253 -175 -78 -16 -160 -2 -251 40
-48 22 -68 27 -78 19 -20 -17 -7 -33 51 -63 82 -41 193 -61 272 -48 125 21
229 88 295 191 33 53 36 81 9 81 -12 0 -29 -17 -45 -45z"/>
<path d="M11067 10450 c-32 -25 -74 -111 -83 -167 -7 -47 6 -73 37 -73 21 0
35 25 44 82 3 21 9 39 13 42 10 6 95 -206 117 -289 8 -33 18 -83 21 -111 l6
-51 -58 -28 c-70 -32 -87 -50 -73 -76 14 -26 45 -23 109 9 160 81 187 105 159
138 -9 11 -22 14 -41 10 -24 -5 -28 -2 -28 18 0 45 -41 184 -95 317 -30 74
-55 144 -55 155 0 22 -18 44 -36 44 -6 0 -23 -9 -37 -20z"/>
<path d="M6583 10306 c-101 -32 -144 -95 -151 -222 -9 -160 61 -309 173 -366
59 -31 170 -36 212 -9 40 25 65 72 61 114 -2 27 -7 32 -28 32 -19 0 -29 -9
-43 -38 -30 -63 -96 -71 -184 -21 -101 58 -151 285 -87 395 25 43 65 63 131
63 41 1 57 -4 75 -21 20 -21 21 -26 9 -58 -10 -28 -10 -39 -1 -50 17 -20 40
-19 56 3 17 22 17 112 1 133 -42 55 -133 73 -224 45z"/>
<path d="M5976 10005 c-47 -32 -68 -56 -98 -113 -15 -29 -28 -41 -39 -39 -41
11 -68 -45 -35 -72 8 -7 17 -23 20 -36 4 -14 11 -25 17 -25 5 0 31 -19 57 -43
26 -24 94 -82 152 -129 58 -47 119 -100 137 -117 60 -60 126 -59 199 3 79 68
122 195 94 280 -20 61 -83 131 -146 162 -57 28 -80 28 -145 0 -14 -6 -17 2
-21 44 -7 69 -38 101 -105 107 -40 4 -54 0 -87 -22z m111 -119 c-5 -51 -41
-143 -71 -181 -15 -19 -16 -19 -63 27 l-47 47 18 38 c47 101 107 154 150 131
16 -9 18 -18 13 -62z m229 -85 c39 -24 82 -79 94 -119 18 -64 -31 -166 -98
-205 -38 -22 -28 -27 -155 82 -67 58 -84 77 -77 90 4 9 41 51 82 94 80 84 99
92 154 58z"/>
<path d="M5423 9543 c-50 -20 38 -190 170 -329 l88 -93 -12 -40 c-10 -32 -9
-44 1 -56 18 -21 46 -19 63 6 15 20 16 19 67 -42 28 -34 62 -79 75 -100 13
-20 30 -39 37 -42 21 -7 48 12 48 35 0 23 -65 118 -134 195 l-47 52 41 70 c23
39 39 75 35 81 -19 31 135 -28 164 -63 21 -27 59 -22 67 9 13 51 -59 97 -243
153 -119 37 -272 99 -347 141 -29 17 -55 30 -57 29 -2 0 -10 -3 -16 -6z m199
-167 c46 -18 101 -39 123 -46 22 -7 43 -14 47 -17 4 -2 -9 -31 -30 -63 l-37
-60 -53 53 c-54 53 -148 167 -138 167 3 0 43 -15 88 -34z"/>
<path d="M3628 9288 l-68 -21 0 -56 c0 -106 -22 -128 -72 -71 -38 43 -79 40
-157 -10 -34 -22 -64 -47 -67 -55 -4 -9 5 -33 19 -54 23 -35 24 -41 11 -52
-13 -11 -21 -7 -50 24 -20 20 -38 37 -42 37 -3 0 -46 -26 -94 -57 -68 -45 -87
-63 -85 -78 2 -11 84 -153 183 -315 99 -162 207 -339 239 -392 33 -54 65 -98
72 -98 8 0 53 24 101 53 96 58 272 140 424 198 117 44 154 65 181 101 27 36
16 71 -40 128 -64 63 -81 87 -168 240 -102 177 -132 220 -154 220 -34 0 -29
-24 26 -115 29 -49 82 -139 116 -200 42 -75 81 -128 121 -167 38 -37 57 -62
53 -72 -7 -19 -64 -48 -165 -85 -107 -40 -323 -140 -407 -189 -53 -30 -73 -37
-81 -29 -6 7 -60 93 -119 192 -60 99 -155 256 -212 348 -57 92 -103 169 -103
170 0 2 23 20 50 41 l51 39 28 -27 c36 -35 88 -35 125 -1 31 29 33 47 5 91
l-21 34 24 20 c12 10 36 24 51 31 26 11 31 10 50 -13 45 -53 94 -62 132 -23
21 20 25 34 25 85 0 57 2 61 28 71 15 6 51 13 79 16 55 6 79 22 69 48 -8 21
-76 18 -158 -7z"/>
<path d="M12232 9255 c-23 -7 -58 -25 -76 -39 -33 -24 -34 -25 -50 -7 -22 24
-94 44 -165 45 -41 0 -67 -6 -98 -23 -41 -24 -43 -24 -87 -7 -60 23 -136 24
-184 2 -34 -16 -54 -38 -92 -104 -6 -11 -19 -11 -65 -3 -134 25 -248 6 -302
-51 -38 -41 -73 -109 -76 -149 -1 -21 -8 -31 -22 -34 -11 -2 -45 -9 -75 -15
-83 -16 -116 -41 -150 -113 -30 -62 -37 -120 -21 -162 6 -14 2 -24 -16 -38
-41 -32 -66 -95 -67 -163 0 -69 18 -106 62 -131 26 -15 27 -19 27 -102 0 -76
3 -91 26 -126 l26 -40 -24 -45 c-63 -116 22 -243 162 -244 47 -1 50 1 50 24 0
21 -6 26 -50 36 -90 20 -115 43 -115 106 0 37 24 78 44 78 8 0 21 -11 30 -25
9 -14 26 -25 39 -25 19 0 26 -12 50 -93 37 -120 104 -257 162 -329 122 -154
312 -247 569 -279 225 -27 501 36 713 163 133 79 250 219 320 379 38 89 83
253 83 305 0 23 5 34 15 34 8 0 21 16 29 35 8 19 22 35 30 35 35 0 71 -65 61
-110 -8 -35 -39 -64 -92 -85 -47 -19 -59 -38 -37 -59 35 -35 164 44 185 114
19 62 4 125 -39 168 l-37 37 58 55 c53 52 57 59 57 102 0 36 -8 57 -34 96 -18
28 -36 66 -40 85 -3 19 -19 54 -35 78 -16 24 -32 59 -36 77 -4 18 -28 55 -54
85 -33 36 -53 69 -65 107 -29 99 -57 142 -110 168 -26 13 -64 26 -84 29 -25 4
-52 19 -82 47 -127 119 -206 146 -318 111z m-3 -682 c-20 -23 7 -90 56 -137
80 -78 197 -96 274 -42 l36 26 7 -27 c4 -16 5 -89 2 -164 l-5 -135 27 -27 c38
-38 85 -44 130 -18 20 12 38 20 40 19 6 -6 -26 -154 -47 -218 -44 -132 -128
-270 -209 -344 -100 -90 -248 -166 -415 -212 -124 -35 -323 -43 -449 -20 -323
61 -494 219 -600 555 -27 86 -27 112 0 73 28 -40 112 -18 133 35 6 15 23 44
37 63 22 30 25 41 19 80 -8 55 -8 79 0 151 7 54 8 55 35 51 43 -6 132 24 162
55 15 15 32 41 38 57 l11 29 92 -6 c111 -8 147 5 220 78 39 38 52 46 70 40 85
-28 183 -7 263 56 l49 39 18 -21 c13 -17 15 -25 6 -36z m138 -103 c14 -11 22
-20 18 -20 -4 0 -18 9 -32 20 -14 11 -22 20 -18 20 4 0 18 -9 32 -20z m363
-351 c0 -11 -29 -19 -45 -13 -8 4 -15 17 -15 30 0 23 0 23 30 6 16 -9 30 -20
30 -23z"/>
<path d="M12352 8018 c-24 -24 -10 -94 20 -103 32 -11 51 14 45 59 -7 51 -37
72 -65 44z"/>
<path d="M11478 7949 c-30 -17 -20 -94 14 -104 10 -4 26 -1 35 6 26 23 5 110
-27 109 -3 -1 -13 -5 -22 -11z"/>
<path d="M12278 7702 c-36 -43 -119 -108 -168 -132 -68 -34 -136 -50 -221 -50
-109 0 -187 27 -278 95 -76 58 -104 65 -109 29 -4 -28 72 -95 150 -135 158
-80 316 -79 483 1 76 37 193 130 215 170 27 50 -33 68 -72 22z"/>
<path d="M3634 8911 c-179 -91 -279 -154 -279 -176 0 -36 35 -27 138 34 56 33
146 81 200 107 82 39 97 51 95 68 -2 11 -10 22 -19 24 -9 1 -69 -24 -135 -57z"/>
<path d="M3678 8677 c-81 -46 -172 -92 -203 -101 -42 -14 -55 -22 -55 -37 0
-53 83 -28 278 82 75 43 144 83 152 88 11 7 12 13 4 27 -6 10 -15 19 -20 21
-5 2 -75 -35 -156 -80z"/>
<path d="M8671 8734 c-239 -32 -443 -100 -530 -179 -45 -41 -54 -79 -21 -90
15 -5 29 3 53 28 80 84 260 143 542 178 365 45 623 -24 826 -221 100 -98 143
-158 205 -287 38 -78 49 -93 68 -93 13 0 27 7 30 16 6 15 -27 103 -65 171 -38
70 -160 222 -221 278 -74 66 -249 157 -363 187 -106 27 -360 33 -524 12z"/>
<path d="M3828 8499 c-24 -16 -93 -47 -154 -70 -60 -22 -125 -46 -144 -53 -42
-17 -60 -40 -42 -58 10 -10 32 -6 110 21 113 39 258 105 284 128 21 19 24 49
5 56 -8 3 -34 -8 -59 -24z"/>
<path d="M7928 8402 c-74 -70 -120 -142 -154 -242 -30 -91 -31 -126 -3 -135
28 -9 34 -1 53 73 9 35 28 88 43 119 32 64 115 160 151 174 18 7 23 15 20 37
-5 48 -39 40 -110 -26z"/>
<path d="M8207 8333 c-33 -32 24 -69 253 -163 405 -166 794 -238 1065 -197 55
9 101 14 103 12 2 -2 -9 -26 -25 -53 l-29 -50 -28 15 c-76 40 -406 -10 -501
-75 -22 -15 -53 -49 -70 -74 -28 -44 -33 -47 -75 -48 -25 0 -63 -9 -85 -18
l-40 -18 -20 30 c-33 49 -78 69 -153 69 -155 0 -306 -57 -399 -150 l-53 -51
-79 31 -80 32 -8 50 c-7 44 -11 50 -33 50 -24 0 -25 -3 -25 -60 l0 -60 -38 3
c-30 3 -42 -2 -67 -26 -17 -17 -30 -38 -30 -46 0 -9 -5 -16 -11 -16 -8 0 -10
46 -8 154 4 161 0 181 -37 174 -24 -4 -32 -36 -33 -141 -1 -112 15 -259 40
-366 40 -172 153 -405 193 -399 40 6 40 31 -1 98 -50 84 -98 192 -117 268 -21
77 -20 79 7 54 62 -58 197 -72 197 -21 0 22 -6 25 -74 34 -91 12 -137 95 -87
156 l19 24 29 -27 c16 -16 34 -28 41 -28 6 0 26 -28 43 -62 99 -198 297 -392
459 -451 128 -46 170 -52 360 -51 165 1 195 3 280 26 294 79 515 254 603 477
33 82 47 179 47 326 0 140 1 144 22 147 15 2 24 13 30 36 10 37 29 41 58 12
62 -62 41 -133 -52 -181 -40 -21 -47 -39 -23 -59 12 -10 23 -8 57 10 60 31 78
49 100 98 14 31 18 54 13 81 -17 104 -127 168 -184 107 -25 -27 -61 -24 -61 4
0 32 -57 43 -134 25 -89 -21 -313 -21 -448 1 -253 39 -560 138 -790 255 -75
38 -107 46 -121 32z m1459 -742 c-28 -148 -77 -243 -175 -340 -106 -104 -256
-186 -421 -228 -241 -61 -524 -31 -698 74 -73 45 -186 153 -248 239 -41 58
-121 211 -113 218 2 2 30 -8 62 -21 42 -19 57 -31 57 -45 0 -11 8 -36 17 -55
25 -54 83 -75 213 -81 118 -5 209 12 288 52 57 29 119 94 127 133 4 16 11 38
16 51 10 26 80 61 120 62 23 0 27 -5 33 -38 12 -79 68 -104 228 -104 l118 1
-17 -32 c-111 -215 -400 -291 -632 -166 -61 32 -89 36 -97 14 -10 -24 15 -46
91 -81 98 -45 165 -57 276 -52 142 7 242 51 338 149 50 51 101 134 101 165 0
17 8 23 33 28 58 11 151 62 189 104 43 47 61 104 52 160 -5 31 0 49 22 93 l29
54 3 -139 c2 -91 -2 -166 -12 -215z m-118 233 c20 -23 23 -35 19 -73 -10 -87
-115 -153 -287 -181 -85 -13 -186 -12 -230 3 -37 13 -66 55 -50 71 6 6 10 22
10 37 0 57 70 111 177 135 162 36 212 43 273 40 56 -4 68 -8 88 -32z m-885
-127 c38 -16 58 -39 58 -64 -3 -96 -6 -105 -47 -142 -67 -59 -128 -76 -279
-76 -135 0 -188 11 -200 43 -3 10 1 21 9 28 9 6 16 25 16 42 0 23 9 38 37 61
60 49 144 89 212 100 35 6 66 13 69 16 10 10 93 5 125 -8z"/>
<path d="M9240 7785 c-17 -21 0 -89 23 -93 30 -6 49 18 43 51 -11 53 -41 72
-66 42z"/>
<path d="M8411 7586 c-8 -9 -10 -28 -6 -50 8 -41 38 -57 63 -32 13 13 14 21 3
56 -13 42 -38 53 -60 26z"/>
<path d="M8176 8254 c-3 -9 -6 -43 -6 -75 0 -136 -40 -301 -107 -436 -35 -70
-38 -103 -10 -103 39 0 107 127 143 267 26 103 49 301 40 339 -7 28 -50 34
-60 8z"/>
<path d="M15662 7750 c-12 -5 -27 -22 -33 -37 -8 -22 -6 -32 9 -52 16 -22 29
-27 86 -32 62 -5 71 -9 107 -45 111 -111 110 -378 -2 -486 -44 -42 -86 -54
-159 -45 -132 16 -243 144 -257 296 -9 99 35 159 132 176 50 9 75 31 75 65 0
56 -68 76 -153 46 -113 -41 -177 -135 -177 -262 0 -168 98 -337 237 -408 18
-9 63 -23 100 -32 157 -36 289 28 362 177 106 216 33 529 -142 617 -50 25
-150 37 -185 22z"/>
<path d="M9855 7680 c-3 -5 -1 -72 6 -147 8 -99 9 -159 2 -213 -11 -80 -5
-100 28 -100 25 0 35 28 44 121 7 77 -8 281 -25 324 -10 25 -43 34 -55 15z"/>
<path d="M8181 7086 c-11 -13 -8 -25 19 -73 62 -110 119 -183 144 -183 45 0
36 33 -40 151 -74 114 -99 135 -123 105z"/>
<path d="M17056 6859 c-90 -13 -201 -46 -283 -84 -64 -30 -74 -38 -71 -57 4
-33 34 -33 109 1 153 69 350 96 488 67 212 -45 433 -231 537 -451 23 -49 47
-115 54 -145 14 -63 25 -80 51 -80 27 0 32 32 15 97 -38 146 -110 274 -220
390 -198 210 -428 299 -680 262z"/>
<path d="M12253 6825 c-13 -9 -23 -22 -23 -30 0 -8 -6 -12 -14 -9 -26 10 -56
-15 -56 -45 0 -20 10 -36 38 -58 20 -17 51 -54 67 -84 27 -48 30 -63 30 -139
0 -74 -4 -92 -30 -144 -57 -113 -151 -184 -278 -210 -34 -7 -65 -20 -72 -30
-17 -23 -7 -55 21 -68 13 -6 24 -17 24 -24 0 -32 167 -101 268 -110 155 -15
285 63 362 216 47 93 63 170 63 295 -1 206 -74 354 -208 422 -64 33 -160 42
-192 18z m140 -99 c18 -7 51 -34 74 -60 104 -118 121 -352 38 -523 -75 -155
-195 -206 -360 -152 -36 12 -65 25 -65 28 0 3 29 21 64 39 146 76 256 252 256
410 0 76 -33 162 -96 250 -16 22 -16 22 20 22 20 0 51 -6 69 -14z"/>
<path d="M16530 6709 c-327 -88 -525 -280 -602 -584 -20 -77 -23 -116 -23
-271 0 -193 6 -218 48 -212 19 3 20 11 22 208 1 229 12 283 81 427 87 182 255
305 504 368 88 22 106 39 80 70 -15 18 -18 18 -110 -6z"/>
<path d="M3913 6561 c-39 -11 -91 -30 -115 -42 -189 -96 -362 -301 -441 -525
-27 -75 -24 -98 13 -92 17 2 27 17 44 63 91 251 289 464 491 528 58 18 92 22
205 21 90 0 158 -6 203 -17 97 -24 109 -23 105 11 -3 24 -9 29 -73 46 -108 28
-338 32 -432 7z"/>
<path d="M4474 6495 c-13 -33 3 -40 118 -53 196 -20 339 -78 448 -178 98 -91
170 -212 210 -355 30 -104 37 -272 16 -369 -20 -95 -20 -106 1 -115 49 -18 78
108 70 304 -5 137 -20 204 -70 321 -84 194 -214 323 -400 396 -136 53 -380 84
-393 49z"/>
<path d="M10215 6447 c-81 -27 -97 -43 -76 -76 8 -12 17 -11 59 7 107 46 326
24 607 -60 284 -86 462 -248 545 -498 28 -85 50 -206 50 -280 0 -29 5 -42 20
-50 28 -15 17 -28 -18 -22 -17 2 -39 -1 -49 -7 -14 -7 -23 -7 -30 0 -25 25
-44 2 -77 -91 -84 -241 -177 -365 -331 -439 -131 -64 -290 -90 -438 -71 -244
30 -480 157 -586 315 -99 148 -156 367 -133 509 6 39 14 83 18 97 4 19 1 28
-11 33 -25 9 -44 -11 -51 -56 -5 -31 -10 -38 -23 -32 -38 17 -82 16 -109 -2
-34 -23 -101 -43 -168 -51 -46 -5 -53 -3 -68 18 -20 29 -20 53 0 112 31 92 70
92 169 1 62 -57 98 -67 102 -29 2 13 -10 29 -35 47 -20 16 -59 44 -85 64 -57
44 -112 50 -147 19 -41 -37 -64 -95 -64 -163 -1 -60 1 -65 33 -94 33 -29 37
-30 100 -25 36 3 75 9 87 12 19 6 21 2 22 -36 3 -65 44 -117 110 -140 41 -14
67 2 51 32 -5 10 -16 19 -24 19 -26 0 -85 60 -85 87 0 43 35 93 66 93 2 0 10
-16 18 -35 8 -19 20 -35 25 -35 6 0 11 -17 11 -38 0 -146 81 -362 186 -495 79
-101 266 -208 453 -258 107 -29 281 -36 392 -15 47 9 89 16 92 16 4 0 7 -15 7
-32 0 -72 71 -138 148 -138 45 0 102 23 102 41 0 6 17 -4 39 -24 79 -72 210
-68 270 9 18 23 23 24 58 15 80 -23 160 -4 181 44 9 19 18 23 55 23 62 -1 107
27 136 85 20 41 22 51 11 76 -13 31 -41 48 -130 76 -123 40 -219 107 -242 171
-8 22 -19 34 -30 34 -27 0 -32 -24 -13 -64 37 -77 142 -149 288 -196 83 -27
91 -36 69 -81 -22 -44 -57 -56 -123 -43 -54 12 -66 6 -61 -33 7 -54 -98 -69
-160 -23 -39 29 -61 23 -69 -20 -4 -19 -17 -43 -29 -52 -42 -34 -167 -16 -183
25 -7 20 -102 20 -118 1 -24 -30 -116 -6 -138 35 -6 10 -9 35 -7 56 3 36 7 40
72 72 37 19 85 48 106 64 78 62 167 205 219 352 19 54 28 67 45 67 12 0 29 11
38 25 20 31 42 23 56 -19 21 -64 -16 -108 -100 -120 -46 -7 -62 -20 -53 -43 8
-19 81 -16 130 7 43 19 83 69 83 104 0 18 1 18 28 0 54 -37 135 -74 162 -74
14 0 37 10 49 22 22 20 23 27 18 100 -6 89 -35 160 -78 191 -35 25 -70 17
-146 -32 l-58 -37 -2 100 c-3 206 -108 451 -257 599 -89 90 -271 165 -563 233
-132 31 -354 42 -418 21z m1438 -949 c25 -34 46 -173 29 -190 -18 -18 -56 -1
-146 63 -72 52 -88 69 -66 69 6 0 16 4 23 10 76 62 110 82 131 76 6 -1 18 -14
29 -28z"/>
<path d="M9959 6381 c-66 -26 -128 -71 -192 -141 -56 -60 -76 -98 -62 -119 13
-21 35 -10 63 32 37 53 118 129 163 152 18 10 56 25 84 34 38 12 50 21 50 36
0 27 -46 30 -106 6z"/>
<path d="M17367 6343 c-19 -18 0 -51 66 -117 90 -90 202 -159 260 -160 37 -1
42 2 42 22 0 19 -11 27 -56 46 -63 26 -150 90 -224 165 -46 47 -72 61 -88 44z"/>
<path d="M16396 6299 c-23 -18 -26 -27 -26 -85 0 -137 -55 -294 -144 -411 -42
-56 -59 -73 -139 -140 -16 -14 -24 -28 -21 -38 4 -9 0 -15 -9 -15 -9 0 -20 -8
-26 -17 -8 -15 -12 -16 -22 -5 -7 6 -29 12 -49 12 -81 0 -127 -115 -84 -206
23 -48 65 -74 139 -87 58 -10 67 -9 82 6 28 28 6 52 -52 54 -94 5 -146 68
-115 142 15 37 35 39 65 7 14 -15 30 -23 41 -20 15 4 25 -10 53 -70 90 -202
215 -350 358 -424 133 -69 209 -85 408 -86 154 0 179 2 268 27 105 28 274 104
354 158 142 96 239 210 299 349 44 103 84 287 84 392 0 54 4 79 14 85 7 4 17
22 23 38 13 39 37 43 68 9 49 -53 22 -142 -54 -174 -36 -14 -47 -38 -27 -58
13 -13 19 -13 48 -1 53 22 107 77 119 122 32 121 -106 252 -187 176 l-21 -20
-12 45 c-10 42 -33 76 -50 76 -5 0 -14 -6 -20 -14 -9 -11 -7 -28 11 -78 19
-54 22 -83 21 -198 0 -112 -5 -152 -26 -232 -38 -145 -98 -257 -182 -343 -333
-340 -925 -405 -1227 -135 -75 67 -162 198 -221 333 -26 59 -47 111 -47 115 0
4 13 13 29 20 47 21 175 163 220 243 49 88 75 168 91 278 l12 81 63 -59 c105
-98 221 -150 367 -166 93 -10 120 -2 116 33 -3 26 -5 27 -90 34 -103 7 -139
18 -232 66 -63 33 -148 106 -203 175 -26 32 -33 33 -67 6z"/>
<path d="M16872 6268 c-25 -25 -12 -47 46 -81 109 -64 221 -102 332 -111 88
-8 134 3 138 33 5 32 -12 40 -73 34 -82 -9 -204 23 -324 84 -58 29 -105 53
-106 53 0 0 -6 -5 -13 -12z"/>
<path d="M4013 6260 c-11 -5 -35 -35 -53 -68 -82 -155 -242 -275 -426 -322
-43 -11 -80 -24 -83 -29 -4 -4 -19 -10 -35 -13 -23 -5 -34 -1 -49 18 -35 45
-115 23 -158 -42 -30 -47 -34 -98 -10 -148 37 -75 152 -132 159 -79 3 17 -6
26 -35 41 -56 29 -78 57 -78 102 0 73 79 124 92 59 3 -18 14 -34 23 -36 15 -4
18 -25 23 -176 6 -197 18 -252 80 -372 68 -130 191 -241 362 -328 298 -151
713 -142 951 20 118 80 246 226 307 351 19 38 38 62 48 62 9 0 24 9 34 20 10
11 24 20 31 20 30 0 45 -80 23 -122 -14 -26 -68 -48 -118 -48 -27 0 -41 -5
-45 -16 -24 -64 120 -56 192 10 32 30 36 40 40 93 7 97 -32 149 -104 141 l-33
-4 2 61 c2 58 1 60 -22 60 -23 0 -26 -6 -37 -65 -25 -134 -93 -263 -204 -383
-150 -164 -302 -233 -536 -244 -292 -14 -541 75 -730 262 -94 93 -143 181
-168 307 -16 78 -21 259 -10 353 6 51 6 51 44 52 57 3 186 49 265 95 81 48
199 162 240 232 l29 49 17 -51 c29 -86 81 -173 140 -237 96 -102 234 -168 234
-111 0 12 -22 32 -65 58 -132 78 -220 201 -258 358 -19 79 -31 90 -79 70z"/>
<path d="M10167 6223 c-19 -18 4 -49 121 -165 150 -150 251 -235 387 -327 209
-141 335 -197 557 -245 30 -7 61 16 52 38 -3 7 -42 20 -90 30 -264 52 -586
256 -882 560 -107 109 -129 126 -145 109z"/>
<path d="M10126 6181 c-3 -5 -28 -53 -55 -108 -56 -111 -142 -226 -220 -293
-47 -41 -51 -47 -38 -64 12 -17 16 -17 43 -3 45 24 147 134 198 214 49 76 116
209 116 230 0 16 -37 36 -44 24z"/>
<path d="M4405 6019 c-13 -20 5 -57 64 -137 68 -92 151 -163 237 -204 65 -31
94 -29 94 6 0 16 -16 28 -69 53 -82 39 -178 128 -241 226 -42 64 -70 82 -85
56z"/>
<path d="M4867 5864 c-12 -13 -8 -41 22 -129 48 -139 131 -259 175 -253 34 5
30 36 -8 78 -44 49 -82 122 -115 225 -20 62 -31 81 -46 83 -12 2 -24 0 -28 -4z"/>
<path d="M17366 5783 c-9 -21 11 -80 29 -87 39 -15 60 37 35 85 -13 23 -55 25
-64 2z"/>
<path d="M14380 5653 c-8 -3 -36 -21 -61 -39 -120 -87 -128 -242 -38 -696 21
-108 39 -206 39 -216 0 -51 57 -62 206 -41 318 44 596 243 697 499 36 91 43
152 22 173 -51 51 -347 -15 -508 -114 -33 -20 -49 -25 -51 -17 -2 7 -14 53
-26 102 -62 261 -167 391 -280 349z m74 -104 c46 -36 96 -157 132 -319 24
-109 23 -108 96 -108 53 0 75 6 138 38 92 47 207 86 285 95 57 8 57 7 50 -16
-3 -13 -22 -57 -42 -98 -68 -142 -227 -274 -412 -341 -81 -30 -247 -64 -278
-58 -12 2 -24 43 -49 173 -51 258 -67 380 -61 471 5 92 23 133 69 163 41 26
39 26 72 0z"/>
<path d="M3815 5593 c-4 -15 -8 -33 -10 -40 -4 -13 20 -43 34 -43 18 0 34 32
35 68 1 33 -2 37 -26 40 -23 3 -28 -1 -33 -25z"/>
<path d="M16522 5603 c-13 -24 10 -87 32 -91 29 -6 48 18 40 52 -3 17 -11 37
-16 44 -15 18 -46 15 -56 -5z"/>
<path d="M6730 5530 c-74 -16 -187 -34 -250 -40 -63 -7 -121 -17 -128 -23 -19
-15 -10 -60 14 -72 32 -16 204 0 369 34 77 15 142 27 144 25 7 -6 -81 -177
-169 -329 -59 -101 -98 -156 -141 -197 -60 -58 -66 -77 -32 -105 8 -6 12 -16
9 -21 -12 -20 17 -130 54 -207 42 -88 96 -158 141 -180 67 -35 157 -7 196 61
67 117 -23 338 -179 442 -21 13 -38 26 -38 28 0 2 29 52 64 111 140 238 223
415 211 454 -7 22 -65 49 -104 48 -14 -1 -87 -14 -161 -29z m-9 -706 c98 -67
174 -258 123 -308 -52 -53 -142 46 -189 208 -16 55 -16 60 1 92 10 19 21 34
23 34 3 0 22 -12 42 -26z"/>
<path d="M9468 5527 c-20 -18 -78 -55 -128 -82 -56 -29 -105 -64 -125 -88 -76
-89 -67 -236 18 -287 22 -14 50 -20 88 -20 59 0 69 -7 69 -52 0 -29 60 -85
106 -97 24 -6 56 -7 84 -1 25 5 46 5 48 0 9 -25 49 -64 78 -76 46 -19 83 -17
128 5 38 20 38 20 67 -1 24 -18 37 -20 100 -15 77 7 95 16 85 42 -5 15 -16 16
-74 11 -75 -7 -88 -2 -93 34 -6 37 -41 38 -78 1 -62 -60 -130 -49 -163 27 -18
40 -22 43 -46 37 -15 -4 -52 -9 -82 -12 -76 -6 -105 16 -113 87 -3 28 -9 55
-12 61 -4 6 -34 7 -80 3 -69 -6 -75 -5 -98 18 -50 50 -42 157 17 213 18 16 67
47 109 67 92 45 159 102 155 131 -5 32 -21 30 -60 -6z"/>
<path d="M10085 5538 c-23 -58 10 -115 41 -73 22 30 14 79 -14 83 -12 2 -24
-3 -27 -10z"/>
<path d="M17337 5463 c-174 -235 -440 -294 -663 -146 -94 61 -119 6 -27 -58
125 -87 317 -110 458 -55 112 43 213 121 277 214 57 83 15 126 -45 45z"/>
<path d="M10845 5434 c-10 -10 -15 -29 -13 -48 2 -25 7 -31 27 -31 20 0 27 7
33 33 14 52 -14 78 -47 46z"/>
<path d="M4632 5398 c-16 -21 -24 -57 -17 -78 8 -25 52 -27 59 -2 2 9 7 27 11
38 3 14 0 28 -10 38 -20 19 -29 20 -43 4z"/>
<path d="M3767 5354 c-38 -38 87 -211 198 -273 89 -51 150 -66 260 -65 75 1
116 7 165 23 89 31 150 67 150 91 0 34 -20 33 -98 -3 -43 -20 -109 -42 -150
-48 -185 -30 -371 61 -459 223 -26 50 -50 68 -66 52z"/>
<path d="M10120 5266 c0 -32 101 -134 173 -174 84 -48 156 -65 262 -60 82 3
101 8 166 40 82 41 135 88 126 112 -10 24 -30 19 -78 -19 -163 -130 -396 -104
-556 61 -65 68 -93 80 -93 40z"/>
<path d="M15765 3620 c-69 -14 -146 -47 -265 -113 -119 -67 -137 -83 -127
-111 11 -27 40 -18 158 48 234 132 354 145 402 44 43 -92 26 -258 -43 -405
-36 -77 -138 -243 -150 -243 -3 0 -11 30 -18 67 -30 160 -114 345 -186 411
-37 34 -53 42 -84 42 -46 0 -82 -23 -82 -54 0 -30 20 -38 58 -24 25 10 35 9
56 -5 34 -22 33 -36 -3 -67 -16 -14 -107 -93 -203 -176 -220 -191 -465 -388
-580 -465 -72 -49 -89 -65 -86 -82 5 -38 42 -32 120 21 146 99 436 334 695
564 67 59 124 108 127 108 9 0 67 -153 62 -165 -7 -20 -119 -106 -381 -293
-247 -176 -343 -253 -401 -323 -39 -46 -40 -52 -18 -73 23 -23 29 -21 69 29
55 67 170 158 436 345 96 67 207 149 247 182 41 33 75 58 77 56 2 -2 8 -26 13
-53 8 -46 6 -53 -21 -93 -34 -52 -98 -103 -220 -178 -239 -148 -441 -298 -564
-420 -83 -82 -94 -90 -107 -75 -27 29 -36 71 -36 161 0 122 -18 130 -137 64
-28 -16 -55 -26 -59 -22 -4 4 -12 49 -17 100 l-11 92 70 60 c38 33 191 182
339 331 169 169 305 296 363 339 72 54 92 74 90 90 -11 75 -123 -9 -488 -369
-168 -165 -328 -320 -357 -343 -29 -24 -69 -67 -89 -95 -21 -29 -46 -60 -56
-70 -13 -13 -18 -33 -18 -77 0 -32 -18 -145 -40 -250 -22 -105 -40 -200 -40
-210 0 -12 13 -25 35 -36 44 -20 72 -17 274 31 133 32 153 40 179 68 219 240
371 364 687 561 134 84 199 134 238 185 26 35 34 39 62 34 31 -5 35 -2 67 53
19 33 53 84 77 114 142 186 190 461 105 607 -41 71 -125 103 -219 83z m-1332
-1217 c3 -10 8 -34 11 -54 14 -84 68 -109 147 -68 23 11 42 19 44 17 2 -2 8
-41 14 -86 8 -64 17 -91 37 -117 14 -19 30 -35 35 -35 5 0 3 -13 -6 -30 -11
-22 -23 -30 -42 -30 -14 0 -88 -16 -164 -35 -159 -40 -193 -43 -185 -17 20 70
57 265 66 344 5 52 12 103 16 112 8 21 21 21 27 -1z"/>
<path d="M16260 12482 c-55 -6 -71 -14 -81 -36 -8 -17 -8 -29 0 -45 10 -18 20
-21 85 -21 86 0 179 -27 246 -73 134 -91 221 -192 265 -307 21 -55 32 -71 52
-76 36 -9 48 10 47 70 -4 179 -303 449 -535 483 -29 5 -65 7 -79 5z"/>
<path d="M3121 11488 c-5 -13 -12 -39 -15 -58 -3 -19 -29 -75 -56 -125 -61
-107 -67 -127 -45 -145 26 -21 43 -4 101 100 28 52 56 96 61 97 6 2 22 -22 36
-54 l26 -58 -22 -5 c-13 -4 -30 -22 -41 -45 -10 -22 -38 -67 -62 -101 -24 -34
-44 -71 -44 -82 0 -22 22 -35 45 -26 18 7 97 116 121 168 10 20 21 36 25 36 4
0 19 -32 34 -70 20 -51 25 -80 21 -105 -6 -31 -1 -40 74 -123 71 -79 90 -94
174 -135 81 -40 104 -47 154 -47 68 0 111 23 150 80 34 49 28 142 -11 193 -67
88 -272 136 -450 105 -14 -2 -29 23 -71 117 -29 66 -73 161 -97 210 -38 78
-48 90 -71 93 -21 3 -30 -2 -37 -20z m510 -468 c140 -27 208 -105 168 -194
-41 -89 -244 -40 -340 82 -65 81 -69 99 -27 111 45 13 134 13 199 1z"/>
<path d="M18040 9993 c-77 -86 -185 -241 -219 -314 -32 -69 -61 -167 -61 -209
0 -39 27 -70 59 -70 39 0 50 17 68 102 21 104 89 237 180 352 104 132 109 141
89 172 -27 40 -58 31 -116 -33z"/>
<path d="M18740 9242 c-43 -35 -121 -69 -268 -117 -165 -54 -229 -110 -203
-177 14 -36 52 -37 94 -2 45 38 132 79 259 122 63 22 140 55 171 75 48 31 57
41 57 66 0 63 -53 79 -110 33z"/>
<path d="M18327 8558 c-9 -7 -19 -24 -22 -38 -9 -37 23 -62 144 -110 139 -55
245 -85 375 -105 137 -22 212 -17 238 15 24 29 23 36 -7 65 -21 22 -33 25 -98
25 -136 0 -290 38 -496 121 -105 43 -110 44 -134 27z"/>
<path d="M19522 7463 c-19 -37 -21 -80 -6 -102 18 -25 65 -28 88 -5 22 22 21
87 -2 107 -24 22 -69 22 -80 0z"/>
<path d="M19052 7188 c-15 -15 -15 -43 -2 -68 13 -25 72 -42 315 -90 110 -22
248 -54 307 -72 117 -34 154 -33 164 6 8 32 -11 64 -44 77 -85 34 -244 74
-441 114 -238 48 -280 52 -299 33z"/>
<path d="M19364 6790 c-12 -5 -24 -16 -28 -26 -8 -22 3 -102 16 -110 30 -19
98 45 98 93 0 35 -47 59 -86 43z"/>
<path d="M975 5828 c-27 -5 -86 -20 -130 -34 -66 -21 -91 -24 -142 -19 l-63 7
-1 -44 c-6 -155 -3 -183 20 -228 30 -58 129 -183 219 -278 6 -7 12 -17 12 -21
0 -7 104 -78 146 -99 44 -23 147 -32 239 -21 188 21 239 30 282 49 46 20 106
79 136 133 53 98 -17 234 -198 385 -184 153 -339 204 -520 170z m287 -81 c217
-97 417 -321 386 -433 -10 -40 -34 -62 -50 -46 -7 7 -30 12 -51 12 -22 0 -70
9 -107 20 l-68 20 -22 98 c-50 216 -92 312 -133 297 -22 -9 -22 -22 2 -71 22
-45 85 -273 78 -280 -2 -3 -58 20 -123 49 -66 30 -140 64 -166 75 -51 22 -51
21 -63 150 -8 83 -12 92 -42 92 l-26 0 8 -91 7 -91 -49 33 c-65 45 -144 119
-137 130 3 5 22 9 42 9 20 0 78 11 127 24 126 34 129 35 235 32 76 -3 106 -8
152 -29z m-447 -214 c33 -25 105 -68 159 -94 55 -27 101 -51 103 -53 2 -2 -18
-17 -45 -35 -26 -17 -59 -42 -72 -56 -13 -14 -27 -25 -32 -25 -5 0 -23 17 -41
37 -18 21 -58 66 -90 102 -67 74 -107 146 -107 192 l0 32 33 -27 c17 -15 59
-47 92 -73z m438 -220 c108 -53 195 -84 262 -92 l60 -7 -33 -17 c-44 -24 -328
-59 -402 -51 -61 7 -129 35 -155 64 -17 18 -16 21 24 56 56 51 132 94 154 87
10 -2 51 -21 90 -40z"/>
<path d="M19486 4544 c-21 -21 -17 -41 35 -176 21 -57 39 -110 39 -119 0 -10
-26 -28 -72 -49 -151 -68 -204 -116 -164 -149 10 -8 42 3 140 49 70 33 129 60
131 60 3 0 20 -35 40 -77 40 -87 60 -113 86 -113 40 0 38 32 -7 130 l-43 95
31 25 c119 95 163 155 138 185 -21 25 -45 17 -79 -26 -39 -48 -111 -103 -122
-92 -4 5 -27 62 -51 127 -48 130 -72 161 -102 130z"/>
<path d="M18563 4329 c-18 -5 -35 -18 -38 -30 -12 -38 9 -47 128 -51 127 -4
171 -20 225 -83 48 -54 70 -103 105 -238 l32 -122 130 -11 c198 -17 256 -52
309 -189 15 -38 36 -84 46 -101 l18 -31 -63 -67 c-35 -37 -120 -149 -189 -249
-116 -168 -222 -297 -246 -297 -6 0 -10 7 -10 15 0 32 -41 94 -91 139 -54 48
-170 110 -273 146 -74 25 -93 25 -106 0 -17 -31 4 -56 62 -76 96 -31 214 -91
257 -129 52 -47 71 -83 71 -133 0 -28 7 -45 25 -62 22 -21 27 -22 57 -9 63 25
197 175 318 353 70 103 149 206 203 262 48 50 87 96 87 101 0 5 -13 27 -29 49
-16 21 -39 64 -52 94 -57 135 -118 207 -198 235 -25 9 -92 20 -149 25 -57 4
-105 10 -108 13 -3 2 -16 45 -29 96 -28 103 -71 194 -116 245 -73 84 -265 137
-376 105z"/>
<path d="M18422 4178 c-23 -28 -258 -438 -290 -506 -19 -41 -37 -95 -39 -120
-4 -46 -3 -48 38 -72 95 -57 205 -195 228 -285 11 -42 14 -46 39 -43 25 3 27
6 25 50 -3 96 -109 253 -228 336 l-30 20 29 59 c15 32 87 159 158 282 72 123
133 232 135 242 10 38 -41 66 -65 37z"/>
<path d="M18532 3938 c-19 -19 -14 -53 9 -74 12 -10 39 -43 61 -72 33 -44 44
-53 66 -50 44 5 42 48 -6 111 -75 98 -101 114 -130 85z"/>
<path d="M18932 3715 c-44 -37 -186 -203 -291 -341 -102 -134 -112 -166 -56
-172 28 -3 37 6 120 115 110 145 202 253 266 315 27 26 49 52 49 58 0 13 -37
50 -49 50 -5 0 -23 -11 -39 -25z"/>
<path d="M18317 3689 c-20 -28 -7 -56 31 -65 47 -12 85 -35 140 -86 50 -47 54
-49 75 -35 35 23 31 43 -20 98 -50 54 -116 93 -175 104 -30 6 -38 3 -51 -16z"/>
<path d="M19060 3566 c-6 -8 -10 -25 -8 -38 2 -18 12 -25 45 -33 23 -6 53 -21
66 -33 30 -28 67 -26 78 5 23 62 -138 149 -181 99z"/>
<path d="M18980 3399 c-10 -17 -7 -28 14 -60 30 -45 99 -94 120 -86 8 3 19 15
25 26 10 17 3 28 -48 80 -62 65 -92 76 -111 40z"/>
<path d="M7491 3342 c-24 -45 44 -151 88 -137 27 8 37 42 18 63 -8 9 -22 34
-30 55 -13 29 -21 37 -41 37 -14 0 -30 -8 -35 -18z"/>
<path d="M7761 3206 c-21 -25 -8 -40 75 -95 83 -54 104 -60 124 -36 19 22 -8
56 -77 98 -73 45 -105 53 -122 33z"/>
<path d="M11933 3000 c-80 -40 -165 -132 -190 -204 -20 -60 -22 -142 -3 -249
7 -43 11 -79 9 -81 -2 -3 -31 5 -64 17 -48 17 -84 21 -180 22 -111 0 -124 -2
-180 -28 -73 -34 -140 -102 -180 -183 -23 -48 -29 -76 -33 -147 -4 -83 -3 -91
27 -152 50 -101 131 -160 281 -205 62 -19 92 -22 171 -18 l97 5 11 -39 c26
-85 143 -154 251 -146 145 10 272 148 287 311 3 31 8 57 10 57 2 0 22 -9 45
-21 75 -38 122 -50 199 -50 98 -1 162 26 222 90 63 68 90 143 91 256 1 126
-31 184 -131 234 -81 40 -259 47 -388 15 -33 -8 -33 -7 11 96 37 86 40 201 7
271 -45 98 -144 168 -248 176 -53 4 -68 1 -122 -27z m186 -89 c51 -27 99 -83
107 -127 16 -87 -11 -189 -73 -271 l-24 -33 -39 20 c-22 11 -61 23 -87 27 -31
4 -53 13 -62 26 -13 19 -43 20 -83 3 -13 -6 -17 0 -23 33 -11 68 -8 144 8 182
18 44 80 115 122 141 39 23 106 23 154 -1z m-210 -475 c8 -9 31 -14 67 -14 67
1 99 -19 132 -83 40 -76 14 -171 -54 -204 -64 -30 -161 -4 -206 56 -43 58 -40
149 8 222 27 40 35 44 53 23z m-259 -49 l65 -22 1 -71 c0 -56 6 -83 26 -124
l26 -53 -35 -107 c-33 -100 -39 -109 -71 -124 -42 -20 -159 -23 -224 -6 -96
26 -187 95 -219 165 -63 137 50 331 211 366 51 11 145 1 220 -24z m570 23 c0
-24 39 -28 135 -13 169 25 293 0 335 -69 14 -24 20 -50 20 -95 0 -120 -56
-214 -146 -243 -85 -28 -226 14 -322 98 l-44 37 18 63 c18 64 17 77 -12 205
-4 17 -2 27 5 27 6 0 11 -4 11 -10z m-283 -383 c40 -8 67 -8 113 1 33 7 64 10
69 7 20 -12 32 -100 21 -150 -40 -180 -208 -259 -317 -150 -43 43 -43 83 -2
161 23 44 29 67 25 92 -7 43 2 65 23 57 9 -4 40 -12 68 -18z"/>
<path d="M8176 3007 c-10 -7 -17 -22 -15 -32 5 -22 106 -83 192 -116 l58 -22
21 20 c37 37 18 50 -227 159 -6 2 -19 -2 -29 -9z"/>
<path d="M10187 2930 c-58 -22 -165 -90 -172 -108 -7 -20 13 -52 33 -52 10 0
40 14 68 32 27 18 82 44 123 58 81 28 103 48 82 74 -18 21 -74 20 -134 -4z"/>
<path d="M8772 2828 c-14 -14 -16 -54 -3 -62 9 -6 239 -60 293 -70 33 -6 64
15 55 38 -9 22 -48 38 -190 75 -133 35 -138 36 -155 19z"/>
<path d="M9463 2747 c-48 -18 -70 -42 -53 -61 10 -14 33 -15 144 -10 72 3 141
7 154 10 29 6 29 38 0 58 -27 19 -195 21 -245 3z"/>
</g>
</svg>
